ply
format ascii 1.0
element vertex 63
property float x
property float y
property float z
end_header
0.359908 -0.005426 0.072558
0.360183 -0.005427 0.072712
0.362021 0.003217 0.074158
0.364120 -0.007241 0.074185
0.364935 -0.003840 0.075004
0.364095 -0.001124 0.075459
0.366749 0.008154 0.074821
0.368649 0.009590 0.075366
0.368288 0.010033 0.075118
0.369866 0.013093 0.074335
0.371644 -0.011494 0.075301
0.371727 -0.009396 0.076156
0.370244 -0.002114 0.077293
0.371953 -0.000022 0.077728
0.370405 0.004115 0.076978
0.371132 0.013490 0.074509
0.372312 -0.011388 0.075623
0.372856 -0.009330 0.076266
0.372124 0.006219 0.077095
0.375232 -0.007319 0.077102
0.374946 -0.002272 0.078001
0.374923 0.011770 0.075811
0.377359 -0.003059 0.078217
0.376903 0.006549 0.077499
0.377340 0.014907 0.074904
0.379968 -0.011687 0.076211
0.379363 -0.004419 0.078052
0.379786 -0.003179 0.078280
0.378942 0.006049 0.077715
0.378425 0.011048 0.076374
0.378480 0.014102 0.075294
0.381499 -0.015618 0.074666
0.380985 -0.000156 0.078784
0.380759 0.000861 0.078656
0.380652 0.003948 0.078158
0.381676 0.004949 0.077902
0.380920 0.013182 0.075681
0.383332 -0.011278 0.076190
0.382838 -0.008473 0.077028
0.382983 0.002487 0.078221
0.385667 0.011383 0.075952
0.387006 -0.013037 0.075050
0.387340 -0.010298 0.075891
0.386494 -0.008936 0.076433
0.386416 -0.006264 0.077081
0.386271 0.002021 0.077839
0.387097 0.007535 0.076892
0.387022 0.010526 0.075885
0.389776 -0.009131 0.075746
0.389913 -0.006427 0.076273
0.389003 -0.002087 0.077471
0.388259 0.015356 0.073879
0.388322 0.014277 0.074323
0.391820 -0.010091 0.074876
0.391269 -0.009150 0.075328
0.391756 -0.006605 0.075695
0.390754 -0.003862 0.076519
0.390968 0.010070 0.075056
0.393352 -0.008494 0.075107
0.392445 -0.006495 0.075491
0.393341 -0.003686 0.075972
0.396579 0.005255 0.074087
0.398167 -0.006272 0.073912
